<?xml version="1.0" encoding="UTF-8" standalone="no"?>
<svg width="1464px" height="1464px" viewBox="0 0 1464 1464" version="1.1" xmlns="http://www.w3.org/2000/svg" xmlns:xlink="http://www.w3.org/1999/xlink" xmlns:sketch="http://www.bohemiancoding.com/sketch/ns">
    <!-- Generator: Sketch 3.3 (11970) - http://www.bohemiancoding.com/sketch -->
    <title>Fill-1</title>
    <desc>Created with Sketch.</desc>
    <defs></defs>
    <g id="Page-1" stroke="none" stroke-width="1" fill="none" fill-rule="evenodd" sketch:type="MSPage">
        <path d="M380.414643,187.057811 C342.707747,211.585943 310.235677,237.734745 282.066155,265.320456 C196.331985,349.284911 135.616272,449.283873 106.915192,561.505031 C78.8949114,671.047266 67.0485109,804.090797 124.053899,954.992935 C159.992897,1050.12292 208.35275,1124.25036 265.548881,1182.25087 C378.486597,1296.77778 515.521794,1363.67089 679.741462,1378.03374 C760.95394,1385.12956 856.290895,1377.64094 954.326414,1340.52508 C1048.36318,1304.92141 1124.13223,1256.47365 1181.45589,1199.57702 C1293.81333,1088.06084 1365.72405,948.963919 1377.49408,785.454912 C1383.45174,702.749077 1378.47527,611.045779 1340.39677,510.375416 C1268.28279,319.668937 1147.12345,213.836014 1011.01554,147.335131 C943.674943,114.433878 868.268789,92.3294491 785.654491,85.4883533 C705.494664,78.8535235 606.512252,86.7783607 509.67561,123.44385 C462.06327,141.469089 418.409034,162.332848 380.414643,187.057811 L380.414643,187.057811 L380.414643,187.057811 Z M484.279191,42.9319079 L527.391762,28.9237844 C740.964777,-27.3421918 916.457444,4.01726469 1063.7258,80.0443357 C1210.98688,156.067684 1340.94508,277.212978 1420.58981,485.091716 L1434.20097,526.98255 C1493.35429,745.254596 1456.02937,914.128579 1383.80164,1065.1365 C1304.15369,1212.16167 1189.44685,1341.21331 979.021279,1421.26497 L936.604779,1435.04692 C723.050229,1491.27648 547.533612,1459.95522 400.272528,1383.93187 C253.009658,1307.90303 123.051467,1186.75773 43.4012527,978.88077 L29.7900958,936.989937 C30.2844294,936.665064 30.4117497,936.143102 30.0338323,935.371626 C-27.9196445,721.333156 5.96014699,545.250307 80.2003769,398.832433 C154.774881,251.74627 279.685863,122.134905 484.279191,42.9319079 L484.279191,42.9319079 L484.279191,42.9319079 Z" id="Fill-1" fill-opacity="0.11" fill="#FFFFFF" sketch:type="MSShapeGroup"></path>
        <path d="M293.088735,793.542751 L327.113946,898.261583 C352.00536,890.313791 371.368153,885.622388 382.35015,869.516114 C398.69156,845.548502 389.490251,802.291739 362.989524,786.264341 C345.306009,775.57256 322.586221,779.499262 293.098142,791.221897 C292.329999,791.599234 292.706626,792.571883 293.088735,793.542751 L293.088735,793.542751 L293.088735,793.542751 Z M604.721272,569.559516 C631.513739,577.048281 658.64775,583.872478 684.609295,593.000004 C647.245921,637.887356 611.110967,683.403674 574.10007,728.480672 C582.96054,731.618271 592.480151,733.46493 601.342409,736.608031 C638.713726,691.334841 676.108637,646.078319 713.243778,600.675029 C738.53466,606.917904 763.618617,613.586935 787.829123,621.987633 C750.491747,667.085541 715.240505,713.251577 678.466517,758.628773 C687.19952,762.026793 696.983238,763.343546 706.168692,765.840207 C744.723087,720.590203 781.689317,674.517864 819.236929,628.76155 L787.024632,529.622293 L891.336665,495.729258 L955.532411,693.303447 C985.50489,685.365501 1017.49934,673.430759 1048.24925,663.950517 L1078.41979,756.805873 L881.617972,820.750659 L850.993316,726.497659 C804.630407,780.556848 758.340715,839.690185 712.276149,895.842482 C638.871655,876.038152 566.951743,853.305902 493.622896,833.361407 C494.215488,894.78821 466.235617,950.241456 399.01039,977.559369 C357.076209,994.59743 306.546074,1005.05996 257.839464,1023.42858 L163.246124,732.300216 C226.405955,716.322687 290.253141,681.853197 344.235356,681.213159 C391.961897,680.640755 433.961965,705.374643 462.265124,743.976121 C510.382292,686.159206 557.20741,627.685332 604.721272,569.559516 L604.721272,569.559516 L604.721272,569.559516 Z" id="Fill-2" fill-opacity="0.11" fill="#FFFFFF" sketch:type="MSShapeGroup"></path>
        <path d="M1013.19893,455.087453 L1117.51096,421.19442 L1181.93377,619.46743 L1273.72748,589.641845 L1303.89802,682.497202 L1107.09621,746.441986 L1013.18405,457.410087 C1012.80563,456.431936 1012.4253,455.466573 1013.19893,455.087453" id="Fill-3" fill-opacity="0.11" fill="#FFFFFF" sketch:type="MSShapeGroup"></path>
    </g>
</svg>