<?xml version="1.0" encoding="UTF-8" standalone="no"?>
<svg width="40px" height="40px" viewBox="0 0 40 40" version="1.1" xmlns="http://www.w3.org/2000/svg" xmlns:xlink="http://www.w3.org/1999/xlink" xmlns:sketch="http://www.bohemiancoding.com/sketch/ns">
    <!-- Generator: Sketch 3.3 (11970) - http://www.bohemiancoding.com/sketch -->
    <title>Dell logo</title>
    <desc>Created with Sketch.</desc>
    <defs></defs>
    <g id="Welcome" stroke="none" stroke-width="1" fill="none" fill-rule="evenodd" sketch:type="MSPage">
        <g id="Dashboard" sketch:type="MSArtboardGroup" transform="translate(-60.000000, -20.000000)" fill="#FFFFFF">
            <g id="Dell-logo" sketch:type="MSLayerGroup" transform="translate(60.000000, 20.000000)">
                <path d="M15.4643307,2.8686166 C14.2772441,3.18766798 13.2125197,3.59304348 12.2474803,4.07209486 C9.31031496,5.53027668 6.88795276,7.61644269 5.19440945,10.2905929 C3.5411811,12.9008696 2.10984252,16.258498 2.31708661,20.6616601 C2.44779528,23.4374704 3.07866142,25.772332 4.07535433,27.7626877 C6.04338583,31.6928063 9.03992126,34.5884585 13.1865354,36.3484585 C15.2372441,37.2186561 17.778189,37.8290909 20.6394488,37.692332 C23.3840157,37.5611067 25.7622835,36.9418182 27.7325197,35.9471937 C31.594252,33.9977866 34.6377165,30.9900395 36.3243307,26.84 C37.1775591,24.7408696 37.8225984,22.3155731 37.6830709,19.3777075 C37.4192913,13.8124901 35.1641732,10.0388933 32.1884252,7.16126482 C30.7161417,5.73754941 28.9430709,4.52632411 26.8537795,3.65090909 C24.8265354,2.80158103 22.1871654,2.1716996 19.3608661,2.30687747 C17.9712598,2.37328063 16.6605512,2.54687747 15.4643307,2.8686166 L15.4643307,2.8686166 Z M19.3807087,0 L20.6194488,0 C26.6451181,0.341185771 30.9411811,2.63810277 34.1265354,5.85754941 C37.3117323,9.07683794 39.6662205,13.3226877 39.9807087,19.3977866 L39.9807087,20.6014229 C39.6748819,26.7735968 37.2788189,30.8472727 34.1265354,34.1618972 C30.8150394,37.3103557 26.7441732,39.6956522 20.5994488,39.9992095 L19.3807087,39.9992095 C13.3558268,39.6572332 9.0588189,37.3611067 5.87362205,34.1418182 C2.6884252,30.9223715 0.333937008,26.6765217 0.0192913386,20.6014229 L0.0192913386,19.3977866 C0.0348818898,19.3935178 0.0425984252,19.3810277 0.0392913386,19.3577866 C0.340551181,13.3057708 2.70795276,9.01565217 5.87377953,5.83731225 C9.05393701,2.64442688 13.3947244,0.330750988 19.3807087,0 L19.3807087,0 Z" id="Fill-1" sketch:type="MSShapeGroup"></path>
                <path d="M8.07346457,17.8931225 L8.07346457,20.9019763 C8.78748031,20.9056126 9.33031496,20.9471937 9.75173228,20.6213439 C10.3788189,20.1364427 10.5049606,18.9345455 9.9515748,18.2942292 C9.58228346,17.8670356 8.95866142,17.7772332 8.09330709,17.8328854 C8.07015748,17.8362055 8.07173228,17.864664 8.07346457,17.8931225 L8.07346457,17.8931225 Z M18.0638583,14.7035573 C18.6969291,15.1244269 19.3444882,15.5309091 19.942126,15.9873518 C18.5920472,16.838419 17.2685827,17.7162055 15.926063,18.5751779 C16.1298425,18.7315415 16.3616535,18.8599209 16.5654331,19.0164427 C17.9189764,18.155415 19.2729921,17.2950198 20.6214961,16.4286166 C21.226063,16.8044269 21.8216535,17.1895652 22.3799213,17.612332 C21.0287402,18.4690909 19.7227559,19.3712253 18.3838583,20.24 C18.582126,20.4020553 18.8252756,20.5188933 19.0429134,20.6613439 C20.4270079,19.8109091 21.7767717,18.9256917 23.1389764,18.0535968 L23.1389764,15.2050593 L26.1361417,15.2050593 L26.1361417,20.8818972 C26.982126,20.9286957 27.9144094,20.8886957 28.793622,20.9019763 L28.793622,23.5699605 L23.1389764,23.5699605 L23.1389764,20.8618182 C21.4775591,21.8752569 19.7751969,23.0211858 18.1038583,24.0915415 C16.3633858,22.956996 14.6862205,21.7588933 12.9488976,20.6213439 C12.4455906,22.2227668 11.2501575,23.427668 9.2723622,23.5699605 C8.03866142,23.6586561 6.63708661,23.5038735 5.21614173,23.5699605 L5.21614173,15.2050593 C6.99251969,15.3231621 8.94291339,14.9664822 10.3512598,15.4056917 C11.5964567,15.793834 12.4791339,16.7913043 12.8887402,18.0335178 C14.6274803,16.9372332 16.338189,15.8129644 18.0638583,14.7035573 L18.0638583,14.7035573 Z" id="Fill-2" sketch:type="MSShapeGroup"></path>
                <path d="M29.6464082,15.1778656 L32.6435736,15.1778656 L32.6435736,20.8747826 L35.2810539,20.8747826 L35.2810539,23.5427668 L29.6264082,23.5427668 L29.6264082,15.2381028 C29.6248334,15.2094862 29.6231011,15.1811858 29.6464082,15.1778656" id="Fill-3" sketch:type="MSShapeGroup"></path>
            </g>
        </g>
    </g>
</svg>