<?xml version="1.0" encoding="UTF-8" standalone="no"?>
<svg width="25px" height="16px" viewBox="0 0 25 16" version="1.1" xmlns="http://www.w3.org/2000/svg" xmlns:xlink="http://www.w3.org/1999/xlink" xmlns:sketch="http://www.bohemiancoding.com/sketch/ns">
    <!-- Generator: Sketch 3.3 (11970) - http://www.bohemiancoding.com/sketch -->
    <title>Shape</title>
    <desc>Created with Sketch.</desc>
    <defs></defs>
    <g id="Page-1" stroke="none" stroke-width="1" fill="none" fill-rule="evenodd" sketch:type="MSPage">
        <path d="M12.4997448,5.64488138 C11.2803197,5.64488138 10.2885479,6.63665319 10.2885479,7.85607824 C10.2885479,9.07550329 11.2803197,10.0672751 12.4997448,10.0672751 C13.7191698,10.0672751 14.7109416,9.07550329 14.7109416,7.85607824 C14.7109416,6.63665319 13.7191698,5.64488138 12.4997448,5.64488138 L12.4997448,5.64488138 Z M24.8966373,7.47223243 C22.1040569,2.6537425 17.7015701,3.55271368e-15 12.4997448,3.55271368e-15 C7.29740904,3.55271368e-15 2.89492221,2.65323206 0.103362734,7.47223243 C-0.0344542448,7.70958389 -0.0344542448,8.00257258 0.103362734,8.23992405 C2.89492221,13.058414 7.29740904,15.7126669 12.4997448,15.7126669 C17.7020805,15.7126669 22.1045674,13.0589244 24.8966373,8.23992405 C25.0344542,8.00257258 25.0344542,7.70958389 24.8966373,7.47223243 L24.8966373,7.47223243 Z M12.4997448,12.1600515 C10.1267406,12.1600515 8.19526114,10.2295929 8.19526114,7.85607824 C8.19526114,5.4825636 10.1262301,3.55159459 12.4997448,3.55159459 C14.8732594,3.55159459 16.8042284,5.4825636 16.8042284,7.85607824 C16.8042284,10.2295929 14.872749,12.1600515 12.4997448,12.1600515 L12.4997448,12.1600515 Z" id="Shape" fill="#000000" sketch:type="MSShapeGroup"></path>
    </g>
</svg>